<?xml version="1.0" encoding="utf-8"?>
<!-- Generator: Adobe Illustrator 19.0.1, SVG Export Plug-In . SVG Version: 6.00 Build 0)  -->
<svg version="1.1" id="Layer_1" xmlns="http://www.w3.org/2000/svg" xmlns:xlink="http://www.w3.org/1999/xlink" x="0px" y="0px"
	 viewBox="0 0 92.1 42.6" style="enable-background:new 0 0 92.1 42.6;" xml:space="preserve">
<style type="text/css">
	.st0{fill:#FF6633;}
	.st1{fill:#FFFFFF;}
</style>
<g>
	<g>
		<path class="st0" d="M86,0L21.3,0C9.5,0,0,9.5,0,21.3C0,33,9.5,42.6,21.3,42.6l64.7,0c3.4,0,6.1-2.7,6.1-6.1V6.1
			C92.1,2.7,89.4,0,86,0z"/>
	</g>
	<g>
		<g>
			<path class="st1" d="M21.3,6.1c-8.4,0-15.2,6.8-15.2,15.2c0,8.3,6.7,15.1,15,15.2V21.3h-5c-1.5,0-2.7,1.2-2.7,2.7
				c0,1.5,1.2,2.7,2.7,2.7V30c-3.3,0-6-2.7-6-6c0-3.3,2.7-6,6-6h5v-1.7c0-2.8,2.2-5,5-5c2.7,0,5,2.2,5,5c0,2.8-2.2,5-5,5h-1.7v14.9
				c6.9-1.5,12.1-7.6,12.1-14.9C36.5,12.9,29.7,6.1,21.3,6.1z"/>
			<path class="st1" d="M27.8,16.3c0-0.9-0.8-1.7-1.7-1.7c-0.9,0-1.7,0.8-1.7,1.7V18h1.7C27,18,27.8,17.2,27.8,16.3z"/>
		</g>
		<g>
			<g>
				<path class="st1" d="M46.9,20.8c0.3,0,0.6,0.1,0.9,0.2c0.3,0.1,0.5,0.3,0.7,0.5L47.9,22c-0.3-0.3-0.6-0.4-1.1-0.4
					c-0.2,0-0.4,0-0.6,0.1c-0.2,0.1-0.3,0.2-0.5,0.3c-0.1,0.1-0.2,0.3-0.3,0.5c-0.1,0.2-0.1,0.4-0.1,0.6c0,0.2,0,0.4,0.1,0.6
					c0.1,0.2,0.2,0.3,0.3,0.5c0.1,0.1,0.3,0.2,0.5,0.3c0.2,0.1,0.4,0.1,0.6,0.1c0.4,0,0.8-0.1,1.1-0.4l0.5,0.5
					c-0.2,0.2-0.4,0.4-0.7,0.5c-0.3,0.1-0.6,0.2-0.9,0.2c-0.3,0-0.6-0.1-0.9-0.2c-0.3-0.1-0.5-0.3-0.7-0.5c-0.2-0.2-0.4-0.4-0.5-0.7
					c-0.1-0.3-0.2-0.6-0.2-0.9c0-0.3,0.1-0.6,0.2-0.9c0.1-0.3,0.3-0.5,0.5-0.7c0.2-0.2,0.4-0.4,0.7-0.5
					C46.3,20.9,46.6,20.8,46.9,20.8z"/>
				<path class="st1" d="M53,20.8v0.8h-2.3v1.1H53v0.7h-2.3v1.1H53v0.8h-3v-4.5H53z"/>
				<path class="st1" d="M57.5,25.4l-0.9-1.5h-1.3v1.5h-0.7v-4.5h2.3c0.4,0,0.8,0.1,1.1,0.4c0.3,0.3,0.4,0.6,0.4,1.1
					c0,0.3-0.1,0.6-0.3,0.9c-0.2,0.3-0.4,0.4-0.7,0.5l0.9,1.6H57.5z M56.8,21.6h-1.5v1.5l1.5,0c0.2,0,0.4-0.1,0.5-0.2
					c0.1-0.1,0.2-0.3,0.2-0.5c0-0.2-0.1-0.4-0.2-0.5C57.2,21.7,57,21.6,56.8,21.6z"/>
				<path class="st1" d="M59.3,20.8h3.8v0.8h-1.5v3.8h-0.8v-3.8h-1.5V20.8z"/>
				<path class="st1" d="M64.5,20.8h0.8v4.5h-0.8V20.8z"/>
				<path class="st1" d="M69.8,20.8v0.8h-2.3v1.1h2.3v0.7h-2.3v1.9h-0.7v-4.5H69.8z"/>
				<path class="st1" d="M71.4,20.8h0.7v4.5h-0.7V20.8z"/>
				<path class="st1" d="M76.7,20.8v0.8h-2.3v1.1h2.3v0.7h-2.3v1.1h2.3v0.8h-3v-4.5H76.7z"/>
				<path class="st1" d="M78.2,20.8h1.5c0.3,0,0.6,0.1,0.9,0.2c0.3,0.1,0.5,0.3,0.7,0.5c0.2,0.2,0.4,0.4,0.5,0.7
					c0.1,0.3,0.2,0.6,0.2,0.9c0,0.3-0.1,0.6-0.2,0.9c-0.1,0.3-0.3,0.5-0.5,0.7c-0.2,0.2-0.4,0.4-0.7,0.5c-0.3,0.1-0.6,0.2-0.9,0.2
					h-1.5V20.8z M79.7,24.6c0.2,0,0.4,0,0.6-0.1c0.2-0.1,0.3-0.2,0.5-0.3c0.1-0.1,0.2-0.3,0.3-0.5c0.1-0.2,0.1-0.4,0.1-0.6
					c0-0.2,0-0.4-0.1-0.6c-0.1-0.2-0.2-0.3-0.3-0.5c-0.1-0.1-0.3-0.2-0.5-0.3c-0.2-0.1-0.4-0.1-0.6-0.1H79v3H79.7z"/>
			</g>
			<g>
				<path class="st1" d="M42.2,28c0.3,0,0.6,0.1,0.9,0.2c0.3,0.1,0.5,0.3,0.7,0.5l-0.5,0.5c-0.3-0.3-0.6-0.4-1.1-0.4
					c-0.2,0-0.4,0-0.6,0.1c-0.2,0.1-0.3,0.2-0.5,0.3c-0.1,0.1-0.2,0.3-0.3,0.5c-0.1,0.2-0.1,0.4-0.1,0.6c0,0.2,0,0.4,0.1,0.6
					c0.1,0.2,0.2,0.3,0.3,0.5c0.1,0.1,0.3,0.2,0.5,0.3c0.2,0.1,0.4,0.1,0.6,0.1c0.4,0,0.8-0.1,1.1-0.4l0.5,0.5
					c-0.2,0.2-0.4,0.4-0.7,0.5c-0.3,0.1-0.6,0.2-0.9,0.2c-0.3,0-0.6-0.1-0.9-0.2c-0.3-0.1-0.5-0.3-0.7-0.5c-0.2-0.2-0.4-0.4-0.5-0.7
					c-0.1-0.3-0.2-0.6-0.2-0.9c0-0.3,0.1-0.6,0.2-0.9c0.1-0.3,0.3-0.5,0.5-0.7c0.2-0.2,0.4-0.4,0.7-0.5C41.6,28.1,41.9,28,42.2,28z"
					/>
				<path class="st1" d="M47,28c0.6,0,1.2,0.2,1.6,0.7c0.4,0.4,0.7,1,0.7,1.6c0,0.6-0.2,1.2-0.7,1.6c-0.4,0.4-1,0.7-1.6,0.7
					c-0.6,0-1.2-0.2-1.6-0.7c-0.4-0.4-0.7-1-0.7-1.6c0-0.6,0.2-1.1,0.7-1.6C45.8,28.2,46.3,28,47,28z M47,28.8
					c-0.4,0-0.8,0.1-1.1,0.4c-0.3,0.3-0.4,0.6-0.4,1.1c0,0.4,0.1,0.8,0.4,1.1c0.3,0.3,0.7,0.4,1.1,0.4c0.4,0,0.8-0.1,1.1-0.4
					c0.3-0.3,0.4-0.7,0.4-1.1c0-0.4-0.1-0.8-0.4-1.1C47.7,28.9,47.4,28.8,47,28.8z"/>
				<path class="st1" d="M51.3,29.8v2.7h-0.7V28l2.3,2.3l2.3-2.3v4.5h-0.8v-2.7l-1.5,1.5L51.3,29.8z"/>
				<path class="st1" d="M57.7,31v1.5H57V28h2.3c0.4,0,0.8,0.1,1.1,0.4c0.3,0.3,0.4,0.6,0.4,1.1c0,0.4-0.1,0.8-0.4,1.1
					C60,30.9,59.7,31,59.2,31H57.7z M57.7,28.8v1.5h1.5c0.2,0,0.4-0.1,0.5-0.2c0.1-0.1,0.2-0.3,0.2-0.5c0-0.2-0.1-0.4-0.2-0.5
					c-0.1-0.1-0.3-0.2-0.5-0.2H57.7z"/>
				<path class="st1" d="M64.1,28c0.6,0,1.2,0.2,1.6,0.7c0.4,0.4,0.7,1,0.7,1.6c0,0.6-0.2,1.2-0.7,1.6c-0.4,0.4-1,0.7-1.6,0.7
					c-0.6,0-1.2-0.2-1.6-0.7c-0.4-0.4-0.7-1-0.7-1.6c0-0.6,0.2-1.1,0.7-1.6C62.9,28.2,63.5,28,64.1,28z M64.1,28.8
					c-0.4,0-0.8,0.1-1.1,0.4c-0.3,0.3-0.4,0.6-0.4,1.1c0,0.4,0.1,0.8,0.4,1.1c0.3,0.3,0.7,0.4,1.1,0.4c0.4,0,0.8-0.1,1.1-0.4
					c0.3-0.3,0.4-0.7,0.4-1.1c0-0.4-0.1-0.8-0.4-1.1C64.9,28.9,64.5,28.8,64.1,28.8z"/>
				<path class="st1" d="M67.7,28l3,2.7V28h0.8v4.5v0v0l-3-2.7v2.7h-0.8V28z"/>
				<path class="st1" d="M76,28v0.8h-2.3v1.1H76v0.7h-2.3v1.1H76v0.8h-3V28H76z"/>
				<path class="st1" d="M77.6,28l3,2.7V28h0.8v4.5v0v0l-3-2.7v2.7h-0.7V28z"/>
				<path class="st1" d="M82.9,28h3.8v0.8h-1.5v3.8h-0.8v-3.8h-1.5V28z"/>
			</g>
			<g>
				<path class="st1" d="M39.9,10h5.7v1.1h-2.3v5.6h-1.1v-5.6h-2.3V10z"/>
				<path class="st1" d="M48.2,10h1.1v2.8h3.4V10h1.1v6.8h-1.1V14h-3.4v2.8h-1.1V10z"/>
				<path class="st1" d="M61.1,16.8l-1.3-2.3h-1.9v2.3h-1.1V10h3.4c0.6,0,1.1,0.2,1.6,0.7c0.4,0.4,0.7,1,0.7,1.6
					c0,0.5-0.1,0.9-0.4,1.3c-0.3,0.4-0.6,0.6-1,0.8l1.4,2.4H61.1z M60.2,11.2h-2.3v2.2l2.3,0c0.3,0,0.6-0.1,0.8-0.3
					c0.2-0.2,0.3-0.5,0.3-0.8c0-0.3-0.1-0.6-0.3-0.8C60.7,11.3,60.5,11.2,60.2,11.2z"/>
				<path class="st1" d="M69.7,10v1.1h-3.4v1.7h3.4V14h-3.4v1.7h3.4v1.1h-4.5V10H69.7z"/>
				<path class="st1" d="M76.9,15.7h-3.1l-0.6,1.1H72l3.4-6.8l3.4,6.8h-1.3L76.9,15.7z M74.4,14.6h2l-1-2L74.4,14.6z"/>
				<path class="st1" d="M81,10h2.3c0.5,0,0.9,0.1,1.3,0.3c0.4,0.2,0.8,0.4,1.1,0.7c0.3,0.3,0.6,0.7,0.7,1.1
					c0.2,0.4,0.3,0.8,0.3,1.3c0,0.5-0.1,0.9-0.3,1.3c-0.2,0.4-0.4,0.8-0.7,1.1c-0.3,0.3-0.7,0.6-1.1,0.7c-0.4,0.2-0.9,0.3-1.3,0.3
					H81V10z M83.3,15.7c0.3,0,0.6-0.1,0.9-0.2c0.3-0.1,0.5-0.3,0.7-0.5c0.2-0.2,0.4-0.5,0.5-0.7c0.1-0.3,0.2-0.6,0.2-0.9
					c0-0.3-0.1-0.6-0.2-0.9c-0.1-0.3-0.3-0.5-0.5-0.7c-0.2-0.2-0.5-0.4-0.7-0.5c-0.3-0.1-0.6-0.2-0.9-0.2h-1.1v4.5H83.3z"/>
			</g>
		</g>
	</g>
</g>
</svg>
